
<svg xmlns="http://www.w3.org/2000/svg" viewBox="0 0 100 100">
  <path d="M23.865234 23.306641C17.258234 23.306641 11.882813 28.681062 11.882812 35.289062L11.882812 65.253906C11.882812 71.674906 17.025672 77.306641 22.888672 77.306641L76.056641 77.306641C83.368641 77.306641 88.882813 72.124906 88.882812 65.253906L88.882812 35.289062C88.882812 28.682063 83.506438 23.306641 76.898438 23.306641L23.865234 23.306641 z M 23.865234 25.306641L76.898438 25.306641C82.403437 25.306641 86.880859 29.785062 86.880859 35.289062L86.880859 65.253906L86.882812 65.253906C86.882812 70.984906 82.228641 75.306641 76.056641 75.306641L29.810547 75.306641C30.040547 75.306641 30.248875 75.144203 30.296875 74.908203L32.105469 66.134766C32.112469 66.101766 32.117188 66.067203 32.117188 66.033203C32.117188 65.081203 33.008516 64.306641 34.103516 64.306641L65.898438 64.306641C66.994438 64.306641 67.884766 65.081203 67.884766 66.033203C67.884766 66.067203 67.887531 66.101766 67.894531 66.134766L69.703125 74.908203C69.758125 75.179203 70.026969 75.350875 70.292969 75.296875C70.563969 75.240875 70.737641 74.976078 70.681641 74.705078L68.884766 65.980469C68.853766 64.501469 67.525437 63.306641 65.898438 63.306641L34.103516 63.306641C32.476516 63.306641 31.148187 64.501469 31.117188 65.980469L29.318359 74.705078C29.261359 74.976078 29.436031 75.240875 29.707031 75.296875C29.740395 75.303744 29.774321 75.30653 29.808594 75.306641L22.888672 75.306641C18.174672 75.306641 13.882812 70.514906 13.882812 65.253906L13.882812 35.289062C13.882812 29.785063 18.361234 25.306641 23.865234 25.306641 z M 20.382812 29.306641C19.555812 29.306641 18.882812 29.979641 18.882812 30.806641C18.882812 31.633641 19.555813 32.306641 20.382812 32.306641C21.209813 32.306641 21.882812 31.633641 21.882812 30.806641C21.882812 29.979641 21.209812 29.306641 20.382812 29.306641 z M 79.382812 29.306641C78.555813 29.306641 77.882812 29.979641 77.882812 30.806641C77.882812 31.633641 78.555813 32.306641 79.382812 32.306641C80.209812 32.306641 80.882812 31.633641 80.882812 30.806641C80.882812 29.979641 80.209812 29.306641 79.382812 29.306641 z M 20.382812 30.306641C20.657812 30.306641 20.882812 30.530641 20.882812 30.806641C20.882812 31.082641 20.657812 31.306641 20.382812 31.306641C20.107813 31.306641 19.882812 31.082641 19.882812 30.806641C19.882812 30.530641 20.106813 30.306641 20.382812 30.306641 z M 79.382812 30.306641C79.657813 30.306641 79.882812 30.530641 79.882812 30.806641C79.882812 31.082641 79.657813 31.306641 79.382812 31.306641C79.107812 31.306641 78.882812 31.082641 78.882812 30.806641C78.882812 30.530641 79.106812 30.306641 79.382812 30.306641 z M 16.382812 34.306641C16.106812 34.306641 15.882812 34.530641 15.882812 34.806641L15.882812 59.806641C15.882812 60.082641 16.106813 60.306641 16.382812 60.306641L84.382812 60.306641C84.658812 60.306641 84.882812 60.082641 84.882812 59.806641L84.882812 34.806641C84.882812 34.530641 84.658812 34.306641 84.382812 34.306641L16.382812 34.306641 z M 16.882812 35.306641L83.882812 35.306641L83.882812 59.306641L16.882812 59.306641L16.882812 35.306641 z M 30.882812 39.306641C26.471813 39.306641 22.882813 42.895641 22.882812 47.306641C22.882812 51.717641 26.471812 55.306641 30.882812 55.306641C31.030812 55.306641 31.176266 55.293156 31.322266 55.285156C31.468266 55.293156 31.613719 55.306641 31.761719 55.306641L69.003906 55.306641C73.348906 55.306641 76.882813 51.771734 76.882812 47.427734L76.882812 47.1875C76.882812 42.8425 73.348906 39.306641 69.003906 39.306641L31.761719 39.306641C31.613719 39.306641 31.468266 39.320125 31.322266 39.328125C31.176266 39.320125 31.030812 39.306641 30.882812 39.306641 z M 34.746094 40.306641L65.017578 40.306641C62.554578 41.671641 60.880859 44.296641 60.880859 47.306641C60.880859 50.316641 62.554578 52.941641 65.017578 54.306641L34.746094 54.306641C37.209094 52.941641 38.882812 50.316641 38.882812 47.306641C38.882812 44.296641 37.209094 41.671641 34.746094 40.306641 z M 68.882812 40.306641C72.741812 40.306641 75.882812 43.446641 75.882812 47.306641C75.882812 51.166641 72.741812 54.306641 68.882812 54.306641C65.023813 54.306641 61.882812 51.166641 61.882812 47.306641C61.882812 43.446641 65.023813 40.306641 68.882812 40.306641 z M 31.320312 40.330078C34.975313 40.559078 37.882812 43.596594 37.882812 47.308594C37.882812 51.020594 34.975313 54.056156 31.320312 54.285156C27.732312 54.057156 24.882813 51.072734 24.882812 47.427734L24.882812 47.1875C24.882812 43.5425 27.732312 40.558078 31.320312 40.330078 z M 37.382812 66.306641C36.555813 66.306641 35.882812 66.979641 35.882812 67.806641C35.882812 68.633641 36.555813 69.306641 37.382812 69.306641C38.209812 69.306641 38.882812 68.633641 38.882812 67.806641C38.882812 66.979641 38.209812 66.306641 37.382812 66.306641 z M 62.382812 66.306641C61.555813 66.306641 60.882812 66.979641 60.882812 67.806641C60.882812 68.633641 61.555813 69.306641 62.382812 69.306641C63.209812 69.306641 63.882812 68.633641 63.882812 67.806641C63.882812 66.979641 63.209812 66.306641 62.382812 66.306641 z M 37.382812 67.306641C37.657812 67.306641 37.882812 67.530641 37.882812 67.806641C37.882812 68.082641 37.657813 68.306641 37.382812 68.306641C37.107813 68.306641 36.882812 68.082641 36.882812 67.806641C36.882812 67.530641 37.107812 67.306641 37.382812 67.306641 z M 62.382812 67.306641C62.657812 67.306641 62.882813 67.530641 62.882812 67.806641C62.882812 68.082641 62.657813 68.306641 62.382812 68.306641C62.107813 68.306641 61.882812 68.082641 61.882812 67.806641C61.882812 67.530641 62.107812 67.306641 62.382812 67.306641 z M 34.382812 70.306641C33.555813 70.306641 32.882812 70.979641 32.882812 71.806641C32.882812 72.633641 33.555813 73.306641 34.382812 73.306641C35.209812 73.306641 35.882812 72.633641 35.882812 71.806641C35.882812 70.979641 35.209812 70.306641 34.382812 70.306641 z M 66.382812 70.306641C65.555813 70.306641 64.882812 70.979641 64.882812 71.806641C64.882812 72.633641 65.555813 73.306641 66.382812 73.306641C67.209812 73.306641 67.882812 72.633641 67.882812 71.806641C67.882812 70.979641 67.209812 70.306641 66.382812 70.306641 z M 34.382812 71.306641C34.657812 71.306641 34.882812 71.530641 34.882812 71.806641C34.882812 72.082641 34.657813 72.306641 34.382812 72.306641C34.107813 72.306641 33.882812 72.082641 33.882812 71.806641C33.882812 71.530641 34.107812 71.306641 34.382812 71.306641 z M 66.382812 71.306641C66.657813 71.306641 66.882812 71.530641 66.882812 71.806641C66.882812 72.082641 66.657812 72.306641 66.382812 72.306641C66.107812 72.306641 65.882812 72.082641 65.882812 71.806641C65.882812 71.530641 66.107812 71.306641 66.382812 71.306641 z" />
</svg>