<svg xmlns="http://www.w3.org/2000/svg" viewBox="0 0 24 24">
  <path d="M22,10l-8-8c-1.105-1.105-2.895-1.105-4,0l-8,8c-1.105,1.105-1.105,2.895,0,4l8,8c1.105,1.105,2.895,1.105,4,0l8-8 C23.105,12.895,23.105,11.105,22,10z" opacity=".35" />
  <circle cx="12" cy="8" r="1"  />
  <circle cx="12" cy="4" r="1"  />
  <circle cx="12" cy="12" r="1"  />
  <circle cx="4" cy="12" r="1"  />
  <circle cx="8" cy="12" r="1"  />
  <circle cx="16" cy="12" r="1"  />
  <circle cx="16" cy="8" r="1"  />
  <circle cx="8" cy="8" r="1"  />
  <circle cx="16" cy="16" r="1"  />
  <circle cx="8" cy="16" r="1"  />
  <circle cx="20" cy="12" r="1"  />
  <circle cx="12" cy="20" r="1"  />
  <circle cx="12" cy="16" r="1"  />
</svg>