<svg xmlns="http://www.w3.org/2000/svg" viewBox="0 0 155 187">
<path id="face" d="M51.67,146.67 L51.67,145.67 L52.33,144.33 L53.67,143.00 L54.33,141.67  M70.67,175.00 L70.67,174.33 L70.00,173.67  M49.33,177.00 L48.33,177.33 L48.00,178.33 L51.33,181.33  M70.00,170.00 L71.67,170.67 L72.00,171.67  M58.33,142.33 L62.00,140.00 L63.33,140.33  M92.33,164.00 L92.67,163.00 L94.33,163.00 L94.67,163.33  M97.67,166.33 L99.00,168.00  M28.00,101.00 L28.33,99.00 L25.67,91.67 L25.67,90.00 L26.33,89.33 L26.33,88.33 L26.00,88.00 L26.00,74.33 L26.33,74.00 L26.33,72.00 L27.00,70.00 L27.00,67.00 L28.00,65.00 L28.00,63.67 L29.00,61.67 L29.33,59.67 L30.00,59.00 L30.33,57.33 L31.00,56.67 L31.00,55.67 L32.33,53.67 L32.33,53.00 L34.00,50.33 L35.00,49.33 L35.67,47.67 L37.67,45.00 L38.00,44.00 L40.00,42.00 L40.00,41.33 L41.33,39.33 L44.67,36.33 L48.33,34.00 L50.00,32.33 L62.33,26.33 L66.00,26.00 L67.33,24.67 L70.67,24.33 L72.33,23.33  M68.00,148.33 L67.33,148.67 L64.33,148.67 L63.33,148.33  M113.00,155.67 L112.33,156.67 L112.33,157.33 L111.00,159.00  M82.67,171.67 L83.67,171.00 L84.33,168.67  M100.00,170.67 L99.67,171.00 L99.67,172.33  M80.33,183.67 L81.67,182.00  M105.33,156.67 L106.00,156.67 L106.67,156.00  M70.33,91.67 L71.00,91.67 L73.00,93.33 L72.67,95.00  M85.67,179.67 L87.67,179.00 L89.67,177.33  M60.33,42.33 L61.00,41.33  M58.00,150.00 L56.00,150.67 L55.00,152.00  M95.67,163.00 L96.33,161.00 L97.33,160.00  M57.33,171.33 L57.33,172.33 L59.33,176.00 L60.33,177.00 L60.33,177.67  M45.67,50.00 L47.33,50.33 L47.67,50.00 L50.33,49.67  M84.00,149.00 L85.67,148.67  M111.00,146.67 L110.33,148.00 L110.33,149.33  M68.00,153.33 L66.33,153.00 L65.67,152.33 L64.67,152.33  M70.00,168.00 L69.00,169.00 L68.00,169.00 L67.33,168.33 L66.67,168.67 L66.33,168.33  M88.67,146.33 L89.33,146.33 L91.00,147.33 L92.67,147.33 L93.00,147.00 L94.00,147.33 L94.67,148.00 L94.00,148.67 L90.00,148.67 L89.67,148.33 L86.33,148.67  M77.00,145.00 L78.00,145.33 L79.00,144.67  M98.67,30.33 L97.67,29.33 L96.67,29.00  M98.67,30.33 L100.33,30.00  M98.67,30.33 L98.33,31.00 L97.67,31.33  M80.67,160.00 L80.67,160.67 L81.67,161.67 L82.00,161.33  M81.00,173.67 L78.33,171.33  M81.00,173.67 L81.67,172.67 L81.67,172.00 L80.67,170.67  M88.67,25.67 L89.67,26.00  M54.33,156.33 L58.33,159.33 L60.33,161.33 L61.33,161.67  M60.67,138.33 L59.33,140.00 L57.33,141.00  M81.67,19.00 L79.67,18.67  M100.00,152.33 L98.67,151.33 L97.67,151.33  M82.33,182.00 L82.67,182.33 L83.67,182.33 L85.33,180.33  M67.67,119.00 L67.67,119.67 L66.67,120.67 L65.67,123.67 L64.00,127.00 L64.00,130.00 L65.00,131.67 L67.00,133.67 L68.33,134.33 L69.33,135.33  M126.00,151.33 L126.33,150.33 L125.67,149.67  M87.67,133.33 L87.00,132.33 L85.67,132.33 L85.00,133.00 L83.00,133.67 L81.00,135.00 L80.33,135.00 L79.67,135.67 L77.00,136.00  M115.33,158.00 L113.33,160.33  M97.67,143.00 L94.00,142.33  M91.00,26.67 L91.33,29.00 L93.33,31.00 L94.00,35.33  M127.33,95.00 L127.33,96.00 L127.67,96.33 L127.33,97.33 L127.67,97.67 L127.67,102.67 L128.00,103.33  M71.00,125.67 L71.33,126.00 L71.33,127.00  M88.00,145.67 L86.33,147.67  M89.67,130.33 L90.33,130.33 L91.33,129.00 L90.00,125.33  M48.67,161.67 L48.67,160.67 L47.67,158.67 L48.33,157.67 L48.00,157.33  M118.33,96.33 L120.33,96.00 L120.67,95.00 L116.67,90.67 L115.67,90.33 L113.33,90.33 L108.67,88.33 L108.00,88.67 L106.00,88.67 L104.67,88.00 L103.00,88.00 L102.67,88.33  M102.00,32.33 L102.00,33.33  M24.33,97.67 L25.33,99.67 L25.33,100.33 L26.67,102.00 L26.00,104.00 L27.67,106.33 L27.67,109.33 L28.00,109.67 L28.00,110.67 L27.67,111.00 L27.67,116.67 L27.33,117.67  M41.67,141.33 L42.00,140.67 L41.33,139.67 L41.67,139.00 L41.67,137.33 L41.33,137.00  M108.00,49.33 L108.33,49.00 L109.67,49.33 L113.33,52.00 L114.00,52.00 L115.67,53.67 L116.67,53.67  M76.67,38.33 L77.33,40.00  M95.67,30.33 L96.33,30.67 L96.33,31.00  M130.67,99.00 L132.33,95.33 L133.33,94.33  M95.67,172.33 L95.33,171.00 L94.33,170.00  M119.00,152.33 L117.33,155.33 L116.67,155.67 L115.33,157.33  M50.33,160.33 L49.67,159.33 L50.33,157.67  M48.33,40.00 L47.33,39.00 L48.00,37.33  M56.33,47.67 L53.00,49.33 L51.67,48.67  M71.67,119.33 L70.33,122.00 L70.00,124.67 L69.00,126.00 L69.00,127.33 L70.33,128.00 L71.33,127.33  M94.33,171.67 L93.67,172.67 L94.00,174.67 L93.00,176.00 L92.00,178.00 L92.00,178.67  M54.67,154.00 L53.33,155.67 L53.00,156.67 L52.00,157.67 L50.67,157.00 L50.67,156.00 L50.00,155.33  M128.33,177.00 L126.00,175.67 L121.67,171.33 L120.33,168.33 L117.67,164.33 L117.00,162.67 L118.33,161.00 L118.67,159.33 L120.33,157.67 L120.67,156.67 L122.00,155.00 L122.00,154.33 L123.00,153.00 L123.67,150.33 L124.67,149.00 L124.33,148.67 L124.33,147.67 L125.00,146.00 L125.67,142.00 L126.33,140.67 L126.33,138.67 L127.00,136.67 L127.00,133.00 L128.00,132.33 L129.00,132.33 L131.00,131.33 L134.00,128.33 L135.67,125.00 L135.67,122.33 L136.67,119.67 L136.67,110.00 L137.00,109.67 L137.00,105.33 L137.33,105.00 L137.67,93.67 L138.33,92.33 L138.33,91.00  M57.67,186.67 L57.00,185.67 L56.00,185.33 L53.33,183.33  M86.33,172.67 L85.67,173.00 L85.00,174.00 L84.33,174.00 L83.67,174.67 L83.33,175.67 L81.33,177.33 L81.00,178.33 L80.33,179.00 L79.67,178.67 L79.33,177.67 L78.33,177.00  M71.33,163.00 L72.33,164.33 L73.00,164.33  M82.00,19.33 L82.00,20.00 L81.33,20.67  M87.33,21.67 L85.67,20.33 L85.33,17.67 L82.00,14.67 L79.33,13.33  M100.33,146.33 L101.00,148.00 L102.67,150.33 L102.33,151.00  M109.00,159.00 L110.00,160.33 L108.67,162.33 L108.67,163.00 L106.67,165.00 L106.00,167.33  M84.67,158.33 L86.67,161.67  M85.67,128.00 L85.33,128.33 L84.33,128.33 L82.33,130.67  M108.00,34.67 L108.67,36.67 L110.67,39.00 L110.67,39.67 L108.00,43.00 L106.33,43.67 L104.67,45.33 L103.67,45.67  M49.00,155.67 L50.00,155.33  M72.33,135.67 L71.33,136.33 L70.33,136.33 L69.67,137.00 L69.33,138.00 L67.33,139.67 L67.33,140.33 L65.33,142.67 L64.33,144.67 L63.33,145.67 L62.33,146.00  M89.67,163.00 L90.33,163.33 L91.33,164.67  M133.33,112.33 L133.33,107.00 L134.00,106.33  M57.33,152.33 L59.33,150.33 L60.00,150.33 L61.00,149.67 L62.33,150.33  M76.33,164.33 L78.00,164.67  M57.67,153.33 L56.33,154.00 L56.00,153.67 L55.00,153.67  M81.33,21.00 L82.67,22.00 L83.33,21.33 L84.00,19.67 L83.00,18.33 L82.00,19.00  M82.67,146.33 L79.67,147.00 L78.67,147.67 L74.33,147.00 L73.33,146.33  M96.00,50.67 L94.67,49.67 L94.00,48.67 L92.67,48.00 L91.00,46.00  M55.00,159.33 L53.33,157.33  M55.00,159.33 L54.33,160.00 L54.33,161.00 L55.00,161.67 L55.67,161.67 L57.00,160.67  M77.00,36.00 L76.33,36.00 L75.67,37.00 L74.33,37.33 L73.33,38.33 L72.67,41.00 L71.67,42.00 L70.00,42.00  M104.00,33.67 L104.67,34.33 L104.00,35.33 L102.33,33.67  M134.67,96.00 L134.67,97.00 L135.33,98.33 L135.33,103.00 L135.67,103.33 L135.33,103.67  M100.00,150.33 L95.00,150.00 L93.00,151.00 L92.33,151.00 L91.33,150.33 L90.00,150.33 L89.67,150.00 L85.67,150.33 L84.00,151.00 L72.00,151.00 L70.00,150.33 L63.00,150.33  M65.67,151.33 L63.33,151.33 L62.67,150.67  M89.00,27.67 L90.00,28.33  M91.00,168.00 L91.67,167.00 L91.33,164.67  M111.67,144.67 L111.67,146.00 L111.33,146.33  M42.67,135.33 L41.33,137.00  M82.33,24.67 L83.67,23.67 L84.67,23.67 L87.00,25.33 L87.00,26.67  M80.67,182.00 L79.00,180.67  M124.33,131.33 L125.33,128.33 L125.33,127.33 L124.67,126.33 L125.00,126.00 L125.00,124.67 L125.67,122.67  M85.00,121.00 L86.33,122.67 L86.67,124.00 L87.67,125.33 L87.33,125.67  M91.33,180.33 L89.67,179.67 L87.00,181.67 L86.67,182.33  M72.67,163.00 L73.67,162.00  M82.33,39.67 L81.67,40.67  M83.33,25.67 L85.33,28.67  M27.33,100.00 L25.67,96.33 L21.00,91.67 L20.67,91.67  M126.67,94.67 L127.67,92.33 L127.33,90.33  M34.33,131.67 L34.33,131.00 L33.00,128.67 L33.00,126.67 L33.33,126.00 L32.33,125.00  M37.00,163.33 L37.33,164.00 L37.00,164.33 L36.67,169.67 L35.67,172.33 L35.67,180.33  M131.33,118.33 L132.00,119.67 L134.33,121.67 L134.67,122.67  M58.67,162.33 L58.33,161.00  M115.33,149.00 L114.67,148.67 L111.67,152.00  M50.00,90.00 L47.33,90.33 L47.00,90.67 L46.67,90.33  M135.00,106.33 L135.33,106.67 L135.33,112.33 L135.00,112.67 L135.00,115.00 L133.00,117.33  M33.33,132.00 L33.33,132.67 L35.33,135.33 L36.33,135.33 L37.00,136.33  M77.00,136.00 L72.33,133.67 L70.00,132.00 L69.00,132.67  M105.33,33.67 L104.00,32.33 L101.33,30.67  M87.00,13.67 L87.67,14.67  M102.33,172.67 L101.67,171.33 L101.67,170.33  M72.00,172.33 L71.33,174.00  M102.33,35.67 L100.67,34.00 L100.00,31.67  M102.33,35.67 L103.33,37.00 L103.33,37.67 L101.67,39.67 L101.33,41.33  M138.33,90.33 L138.67,89.67 L137.00,87.67 L135.67,87.00 L134.67,87.67 L134.00,87.67 L132.67,88.67 L132.00,88.33 L132.00,87.33 L132.67,86.33 L132.33,85.33 L132.67,84.67 L132.67,81.00 L132.33,80.67 L132.33,78.00 L131.67,76.33 L131.67,72.00 L131.00,70.33 L130.67,66.33 L129.67,64.00 L129.33,62.00 L127.67,58.33 L127.67,57.00 L127.00,56.33 L126.67,54.67 L126.00,54.00 L126.00,53.33 L124.33,50.00 L121.00,46.00 L120.33,44.00 L113.00,37.00 L110.00,35.00  M43.33,51.00 L47.00,47.67 L48.00,47.33 L50.00,45.67  M78.33,164.33 L78.67,162.33 L79.67,160.67  M84.67,162.67 L85.67,163.00 L86.67,162.33  M71.33,160.33 L73.33,160.67 L74.33,161.67 L74.67,163.00  M95.33,35.33 L95.33,34.00 L95.00,33.67 L95.33,31.33  M57.33,183.00 L60.33,185.67 L62.33,186.33  M63.33,141.33 L65.00,139.33 L65.67,139.00  M86.67,166.00 L86.33,165.67 L85.33,166.00 L84.00,164.67 L83.33,164.67 L82.67,163.67 L83.00,162.67 L84.00,162.00 L84.33,161.33  M88.00,175.67 L89.00,174.33 L89.00,172.67 L89.33,172.00 L90.33,171.33  M132.67,118.33 L133.00,117.33  M98.67,35.67 L98.00,33.33 L96.33,31.00  M76.33,139.00 L77.33,140.33 L76.67,142.33 L71.33,147.00 L70.33,146.67 L69.33,147.00 L69.00,146.67 L68.00,146.67 L67.67,147.00 L67.00,146.67 L66.67,147.00 L65.00,147.00 L63.00,147.67 L62.33,148.33  M64.67,44.00 L63.33,43.33 L61.00,41.33  M50.33,39.33 L48.67,40.00  M50.33,39.33 L52.00,40.67 L54.00,41.67  M126.67,87.67 L127.00,88.00 L127.00,90.00 L127.33,90.33  M81.33,136.67 L80.67,136.67 L79.67,137.67 L79.00,141.00 L79.33,142.00 L81.00,143.67 L83.33,145.33 L83.33,147.00  M78.67,159.67 L80.00,158.67  M78.67,159.67 L76.33,161.67 L75.33,161.67  M78.67,159.67 L79.67,160.67  M43.67,162.00 L44.67,161.00 L45.67,159.00 L45.67,158.33  M63.33,179.00 L62.67,179.67 L62.67,181.33 L64.33,183.00 L65.33,183.33 L65.67,183.00 L66.33,184.00  M68.67,181.33 L68.00,181.67 L67.67,181.33  M86.00,147.67 L84.33,147.67 L84.00,147.33  M93.00,169.33 L94.00,169.67  M42.67,49.00 L38.33,54.67 L37.33,56.33 L37.33,57.00 L35.67,58.67 L34.67,59.00 L33.00,60.67 L32.00,61.00  M57.33,142.00 L56.33,143.33 L56.33,144.00 L54.00,146.67 L53.00,147.33  M65.67,128.67 L65.67,129.00 L67.67,130.67 L71.00,130.67 L73.67,132.00 L76.00,133.67 L79.67,133.33 L80.33,132.67  M69.00,132.67 L70.67,134.33  M72.67,154.00 L71.67,153.33 L71.67,152.33 L72.00,152.00  M64.00,169.00 L63.00,168.67 L62.33,167.33 L63.00,166.67 L63.00,165.67 L61.67,164.33 L60.67,164.00  M99.00,176.67 L98.67,175.67 L99.33,174.00 L99.33,173.00  M89.67,18.67 L89.67,19.67 L88.33,21.33 L88.00,22.33 L88.67,23.33 L88.67,24.33 L89.33,25.00 L93.67,26.00 L96.67,28.00 L98.33,28.00 L100.33,29.00 L101.00,29.00 L105.33,31.33 L107.33,33.00 L108.33,33.33 L110.00,35.00  M101.00,158.67 L102.00,158.67 L105.33,154.33 L105.33,152.33 L105.00,152.00 L105.33,148.67 L103.00,143.67 L100.33,141.00  M129.33,117.33 L129.00,117.00 L129.00,110.67 L130.00,108.33 L130.00,105.00 L131.00,104.00 L131.00,103.00 L130.67,102.67 L130.00,102.67 L128.33,104.33 L128.00,105.33 L128.33,107.33  M84.67,45.00 L85.00,46.33 L84.00,47.33 L82.33,47.67 L81.67,47.00  M82.33,152.67 L83.33,153.67 L83.33,154.00 L82.33,154.67 L81.33,154.67 L79.67,154.00  M58.33,165.67 L58.33,164.67 L58.67,164.33 L57.67,164.00 L57.00,163.33 L57.33,162.67  M102.00,179.67 L99.67,181.00 L95.33,184.67 L93.33,185.67 L92.67,186.33 L93.00,186.67  M72.67,185.33 L69.67,181.33 L68.67,179.33 L68.33,177.67  M72.67,185.33 L71.00,186.00 L70.00,186.00 L69.33,185.33 L67.33,186.00 L66.00,185.67 L65.67,186.67  M72.67,185.33 L73.00,185.67 L74.33,185.67 L75.67,184.67  M83.33,38.00 L84.33,39.00 L85.33,39.33  M82.67,136.67 L83.67,135.00  M80.00,11.33 L77.33,14.00 L76.67,16.00  M24.67,176.33 L31.00,170.33 L33.00,167.67 L34.33,165.00 L36.67,162.33 L37.67,161.67  M93.67,142.33 L91.00,139.67 L89.67,137.67 L90.00,137.00  M91.00,33.33 L90.67,32.33 L88.67,29.67 L87.00,26.67  M98.00,152.33 L96.67,152.67  M39.33,165.00 L39.00,165.33 L39.33,169.00 L41.33,172.67 L48.33,180.00 L52.00,183.00  M41.00,143.33 L42.33,145.33 L42.00,146.33 L42.33,148.00 L44.33,150.67 L46.00,151.67 L46.33,154.00 L48.33,156.00 L48.33,156.67  M44.67,144.67 L43.33,143.00 L44.33,141.00  M63.67,179.33 L65.00,180.67 L66.00,180.67 L67.33,182.00  M50.00,163.33 L48.67,165.00 L47.67,165.00 L47.33,164.33  M128.00,131.67 L127.67,131.33 L128.00,131.00 L128.00,127.67 L128.67,126.00 L128.67,121.67 L129.33,120.00 L129.33,118.00  M93.00,178.67 L95.67,176.33 L96.00,174.33 L96.33,174.00 L95.67,173.00  M55.33,88.33 L54.67,88.33 L53.33,87.33 L52.00,87.33 L50.67,88.00 L49.33,87.00 L48.67,87.00 L45.00,89.33 L42.67,89.67 L41.33,90.33 L39.33,92.33 L37.67,94.67 L37.67,95.33 L38.67,96.00 L38.33,97.00  M102.33,155.00 L101.67,156.00 L101.67,156.67 L100.00,158.33 L99.00,158.67 L98.67,159.67 L98.67,162.00 L99.00,162.67  M56.67,172.67 L56.67,173.33 L56.00,174.00 L54.67,172.67 L55.33,171.00 L53.00,169.00 L52.67,167.33  M46.00,175.67 L46.33,175.33 L46.00,173.00 L43.67,169.67 L41.00,167.00 L41.00,165.33 L39.00,163.00 L39.00,162.00 L38.33,161.33 L38.00,159.33 L37.33,158.67 L37.00,157.33 L35.33,154.67 L35.33,152.67 L32.00,146.67 L32.00,145.67 L31.00,143.33 L31.00,140.67 L30.67,140.33 L30.67,138.33 L30.00,137.00 L29.67,132.67 L29.00,132.00 L25.67,132.00 L23.67,131.00 L21.00,128.33 L20.00,126.33 L20.00,125.00 L19.67,124.67 L19.67,121.33 L19.00,120.33 L19.00,116.67 L19.33,116.33 L19.33,114.00 L19.00,113.67 L19.00,112.67 L19.33,112.33 L19.33,105.67 L19.67,105.33 L19.67,102.33 L20.00,102.00 L20.00,89.33 L21.33,88.00 L23.00,87.67 L25.00,89.00  M76.33,179.67 L78.33,177.00  M105.00,48.33 L106.00,47.67 L106.33,46.67 L109.00,44.33 L110.33,44.33 L112.33,46.00 L113.00,46.00  M110.00,53.33 L109.33,53.67 L106.33,51.33 L105.33,51.00 L105.00,51.33 L104.00,51.00 L103.00,51.33  M49.67,162.33 L51.67,160.67 L53.00,159.00  M92.33,93.00 L94.67,90.33 L96.67,89.33 L97.67,89.67 L100.00,89.67 L100.33,89.33 L101.00,89.67 L101.33,89.33 L103.33,90.33 L107.33,90.67  M38.67,74.33 L38.67,75.33 L37.33,77.67 L36.67,78.33 L34.67,78.67 L33.00,80.33 L32.00,82.67 L32.00,83.67 L31.33,85.00 L31.00,87.00 L30.33,87.67 L30.33,88.33 L31.33,89.67 L31.33,90.67 L31.00,91.00 L31.33,91.67 L31.00,92.00 L30.33,95.67 L29.67,97.00 L30.00,100.33 L28.67,104.33 L29.00,104.67 L28.67,106.67 L29.67,107.67 L29.67,109.00 L29.00,109.67 L29.33,110.33 L29.33,113.33 L30.00,114.67 L30.00,116.33 L31.00,119.33 L30.67,120.00 L31.00,120.33 L31.00,121.67 L31.67,122.67 L31.33,127.33  M81.67,28.67 L80.00,27.33 L79.33,27.33 L77.67,26.33 L76.67,26.33 L75.33,28.00 L75.00,29.33  M100.67,150.67 L100.67,151.33 L102.33,153.33 L102.33,154.33  M90.00,177.33 L91.33,178.67  M68.67,92.00 L68.00,91.00 L67.00,90.67 L64.00,90.67 L62.00,90.00 L60.67,90.00 L59.33,89.33 L54.67,89.33 L52.67,90.33 L51.33,90.33 L50.33,89.33  M129.67,117.67 L133.33,114.33 L133.33,113.00  M37.67,139.33 L37.00,137.33  M103.00,181.33 L101.33,182.33 L98.67,184.67 L96.33,186.00  M66.33,176.33 L65.33,173.33 L65.67,171.00 L65.00,169.33  M91.33,43.67 L91.00,43.33 L90.67,43.67 L89.67,43.33 L89.33,43.67 L87.33,43.33 L85.67,42.33 L84.33,42.00 L83.33,40.67  M71.67,178.67 L70.67,178.00  M71.67,178.67 L73.33,180.00 L74.00,180.00 L74.67,179.33 L74.67,176.67 L74.33,176.33 L74.67,176.00 L74.67,175.00 L75.33,174.33 L75.67,173.33 L78.00,171.33  M126.33,177.00 L125.33,177.00 L124.67,176.33  M134.33,95.33 L134.00,94.67 L134.33,93.67 L135.00,93.33 L137.00,91.00 L138.00,90.67  M58.33,31.67 L59.67,32.33 L61.67,30.33 L62.67,30.00 L63.33,29.33 L64.00,29.33 L65.33,28.00  M99.67,169.67 L99.00,168.00  M110.67,175.33 L113.67,172.00 L114.67,169.67  M56.00,48.67 L57.00,48.00 L59.33,49.33 L60.00,49.33 L60.33,49.00 L61.33,49.00 L62.00,48.33  M23.00,110.33 L22.67,111.33 L22.67,113.67 L26.33,117.67 L27.67,120.33 L27.67,121.67 L28.33,123.00 L28.33,125.33 L28.67,125.67 L28.67,128.67 L29.00,129.00 L29.00,130.00 L28.33,130.67 L25.67,130.67 L22.00,127.33 L22.00,126.67  M86.67,118.67 L86.67,119.33 L88.33,121.33 L89.67,121.33 L91.00,122.67 L92.00,125.00 L93.33,127.00 L93.33,128.67 L93.00,129.00 L93.33,129.67 L93.00,130.67 L92.33,131.33 L92.33,132.00 L91.00,133.33 L88.00,134.33 L86.67,135.33  M69.67,173.33 L68.33,171.33  M70.67,159.33 L71.33,159.33 L72.00,158.67 L74.00,158.67 L75.33,156.67 L77.67,156.67 L78.00,157.00 L78.33,156.67 L80.00,156.67 L82.67,159.00 L83.00,161.67  M45.67,155.00 L45.67,156.33 L46.67,157.33  M79.67,44.67 L77.67,45.67 L76.67,45.33 L74.33,47.33 L70.67,47.00 L68.00,48.67 L67.33,48.67 L66.67,48.00 L65.00,48.00 L64.67,47.67 L64.33,48.00 L62.00,48.33  M53.67,40.67 L55.33,40.67 L57.00,41.33 L59.67,43.67 L60.33,43.00  M110.33,175.67 L103.00,182.33  M99.00,162.67 L98.67,163.33 L99.00,163.67 L99.33,163.33  M70.67,160.67 L69.67,159.67  M52.00,153.33 L53.00,152.33 L53.67,152.33 L54.67,153.33  M85.67,27.00 L86.33,27.33 L87.00,26.67  M21.33,94.67 L21.67,95.33 L23.00,96.33  M79.00,144.67 L79.33,144.33 L79.67,144.67 L79.33,145.00  M102.33,179.33 L104.67,177.00 L106.00,176.67 L107.33,175.33 L109.33,172.33 L112.33,169.33 L113.67,168.67 L115.00,167.33  M68.00,154.00 L70.33,154.67 L70.67,155.33  M90.33,131.67 L89.33,131.67 L88.00,130.67 L85.67,130.67 L81.00,132.67  M129.00,130.67 L129.67,130.67 L131.00,129.67 L132.00,128.33  M75.33,148.33 L73.33,149.33 L69.67,148.33  M129.67,115.67 L131.33,113.00  M94.00,139.33 L95.33,140.00 L96.00,139.33 L96.67,139.33 L98.33,141.00 L100.00,143.67 L100.33,145.67  M67.67,26.00 L69.00,26.00  M84.33,168.33 L81.00,165.00 L80.67,164.00 L80.00,163.33  M116.33,142.00 L115.00,144.33 L114.33,146.67 L110.67,150.33 L110.67,151.00 L109.33,153.00  M122.67,59.33 L122.33,58.33 L120.67,56.33 L120.67,55.67 L119.33,54.33  M86.33,171.67 L86.33,171.00 L87.33,169.67  M100.33,172.67 L101.33,173.67 L102.33,173.33  M115.00,157.67 L113.33,155.67  M81.67,24.67 L79.67,25.33 L77.67,24.00 L76.67,24.00 L75.00,25.67 L74.00,25.33 L72.33,23.33  M122.33,135.67 L122.33,134.00 L123.33,132.33 L123.33,131.67  M129.33,100.00 L129.00,99.67 L129.00,98.33 L130.00,96.67 L130.00,95.67 L130.67,95.00 L133.33,90.00 L134.67,88.67  M68.00,142.00 L68.00,143.00 L66.33,144.33  M107.33,156.00 L107.33,154.33 L108.33,153.33 L107.67,150.33 L108.00,150.00 L108.00,149.00 L108.67,148.33  M88.67,18.00 L88.67,19.00 L87.00,20.33  M37.00,139.67 L37.00,141.67 L38.00,143.00 L39.00,143.33  M118.67,180.33 L118.67,179.33 L119.00,179.00 L119.00,174.67 L118.67,174.33 L118.67,173.00 L118.00,171.33 L118.00,170.00 L117.33,168.67 L117.33,166.33 L116.00,164.67  M59.33,165.67 L60.67,165.67 L61.33,166.33  M122.00,62.33 L121.00,61.67 L120.33,60.00 L119.67,59.33 L118.67,56.33 L118.33,53.33  M71.67,135.00 L70.67,134.33  M124.67,176.33 L123.67,175.67  M99.67,153.67 L99.33,154.33 L99.67,154.67  M78.67,169.33 L78.33,171.00  M61.33,180.33 L60.33,178.33  M23.00,117.67 L21.67,116.33 L21.00,114.33 L21.00,107.33 L21.33,107.00 L21.33,104.67 L21.67,104.33 L21.67,101.33 L23.00,99.33  M57.33,148.00 L61.67,143.00 L63.00,142.33  M69.67,43.67 L68.33,43.33 L67.33,42.33 L66.67,42.33 L65.00,41.33  M71.33,28.33 L71.00,27.67 L71.00,25.33 L70.67,25.00  M45.00,149.00 L45.33,148.00 L43.67,146.00  M79.67,18.67 L78.33,19.67 L79.00,20.67 L80.67,20.67 L81.00,21.00  M78.33,177.00 L76.67,175.67 L76.67,175.00  M69.33,26.33 L69.33,27.00 L68.67,27.67 L66.67,32.33  M91.67,168.67 L91.67,169.33 L91.00,170.00 L88.33,167.67 L87.33,168.33 L87.33,169.00  M97.33,165.67 L95.67,164.33 L95.00,164.33 L94.33,165.00  M65.33,168.67 L64.67,167.67  M99.33,147.67 L98.00,147.67 L96.33,146.33 L94.33,145.67 L93.33,144.33  M50.00,155.33 L50.33,154.67 L50.33,152.00 L50.00,151.33 L50.67,150.33 L50.67,149.00 L51.00,148.33 L52.33,147.33  M70.00,176.00 L69.00,175.33 L69.00,174.67 L69.67,173.67  M68.00,171.33 L66.67,173.00  M90.33,18.33 L90.33,16.33 L89.67,15.33 L89.67,14.67 L86.67,11.00 L85.67,10.33 L84.67,10.33 L82.33,9.33 L79.33,9.00 L74.00,12.00 L72.00,14.67 L72.00,16.67 L71.00,19.00 L71.33,19.33 L71.33,21.33 L72.33,23.33  M86.00,38.33 L86.00,38.67 L89.33,41.67 L90.67,41.00 L92.33,41.00 L95.00,42.00  M122.67,136.33 L123.00,137.00 L122.67,137.33 L122.67,139.00 L122.33,139.33 L123.33,140.67  M84.33,179.33 L84.00,179.67 L83.00,179.67 L82.33,180.33 L82.00,181.67  M108.00,156.67 L108.33,158.33 L106.00,161.33 L105.33,163.33 L104.67,163.67  M99.00,168.00 L102.00,165.33 L101.33,164.33 L100.00,164.00 L99.33,163.33  M52.00,175.00 L52.67,175.33 L53.33,175.00 L55.00,176.33 L55.67,176.33  M44.67,141.00 L45.00,140.67 L46.00,141.00  M84.33,156.00 L85.67,154.67 L87.00,154.00 L88.00,154.00 L89.00,153.33 L90.00,153.33 L92.00,152.00  M62.00,145.00 L62.33,146.00  M79.00,165.00 L80.00,165.33  M62.33,146.00 L61.00,147.00 L60.33,147.00  M74.00,130.33 L73.33,129.00 L71.67,127.33  M104.00,164.33 L103.67,163.67 L104.00,161.00 L103.67,160.67 L103.33,158.33  M115.67,165.00 L115.33,167.00  M90.67,93.33 L91.00,92.67 L91.00,91.00 L92.67,89.67 L93.67,90.00  M91.00,143.33 L88.00,140.33 L87.67,138.67 L83.67,135.00  M77.67,163.00 L76.33,163.33 L75.33,164.33 L73.33,165.00 L71.33,167.00  M127.67,110.67 L127.67,114.67 L127.00,116.33 L127.00,117.67 L126.67,118.00 L126.33,123.67  M121.67,151.00 L121.00,151.33 L120.33,153.00 L121.00,154.00  M79.00,153.00 L80.33,152.33  M78.00,41.33 L79.67,39.33 L80.67,39.00 L81.33,38.33  M78.67,174.67 L79.33,175.00 L79.67,175.67  M124.67,61.00 L126.33,62.00 L128.67,64.33 L128.33,65.67 L129.67,68.00 L129.33,70.67 L130.33,73.00 L130.33,77.33 L130.67,77.67 L130.33,78.33 L130.67,78.67 L130.67,79.67  M72.67,135.67 L75.00,136.67 L76.00,137.67 L75.00,139.00 L75.00,140.00  M94.33,169.33 L95.00,168.00  M52.67,100.83 L52.83,101.00 L52.83,101.67 L53.17,102.17 L53.00,102.33 L53.17,102.67 L54.83,104.33 L56.33,105.00 L56.67,104.83 L59.00,104.83 L59.33,104.67 L61.17,102.67 L61.67,101.00 M54.33,96.33 L54.17,96.50 L53.83,96.33 L53.67,96.50 L52.50,96.67 L51.83,97.00 L51.00,97.00 L50.33,97.50 L49.50,97.67 L49.33,97.83 L48.83,97.83 L48.00,98.50 L47.50,98.67 L46.00,100.00 M63.33,103.00 L61.67,104.00 L61.50,103.67 M61.17,101.00 L61.17,100.67 L61.00,100.50 L61.33,99.83 M66.50,104.50 L67.00,104.50 L67.50,104.17 L68.00,104.17 L68.50,103.50 L68.33,103.33 L68.33,103.00 L66.50,101.17 L66.17,101.17 L65.83,100.83 M64.50,102.50 L64.33,102.17 L62.67,100.67 M47.67,103.67 L48.67,103.17 L49.33,102.50 L50.00,102.33 L50.50,101.67 L51.17,101.33 L52.00,100.50 L52.33,100.50 M47.00,102.33 L47.17,102.33 L47.67,101.83 L48.17,101.67 L49.00,100.83 L49.50,100.67 L50.00,100.17 L50.67,99.83 L51.00,99.83 L51.50,99.33 L52.50,98.83 L53.67,98.83 L53.83,99.00 L55.00,98.50 L55.83,98.50 M58.00,100.67 L58.00,101.00 L57.50,101.67 L57.33,101.67 L56.83,101.17 L56.83,100.33 L57.00,100.17 L57.67,100.00 L58.17,100.33 M52.17,104.00 L53.33,105.00 L54.00,105.00 L54.17,104.83 M56.00,98.17 L57.17,98.67 L57.67,98.67 L57.83,98.50 L58.17,98.67 L58.33,98.50 L59.17,98.50 L59.67,98.83 L60.33,98.83 L61.00,99.17 L61.33,99.50 L61.17,99.67 L61.33,99.83 M107.00,98.67 L109.00,99.17 L109.50,99.67 L110.33,100.00 L111.00,100.50 L112.00,101.50 L112.00,101.67 M96.83,99.50 L96.50,99.83 L95.83,99.83 L95.50,100.00 L94.67,100.83 L94.00,100.83 L92.83,101.50 L92.33,102.00 L91.83,102.00 L90.50,103.17 L90.33,103.50 L90.33,104.50 L90.83,104.83 L91.33,104.83 L92.33,105.33 L92.83,105.83 M96.67,101.17 L96.50,101.00 L96.17,101.17 L95.17,102.33 L94.67,102.50 L94.33,102.83 L94.17,102.67 L93.83,102.67 L93.00,103.00 L92.67,103.33 L92.33,103.33 M113.67,101.17 L111.83,99.33 L109.83,98.00 L108.00,97.67 L107.33,97.17 L106.50,96.83 L105.83,96.83 L105.67,96.67 L104.00,96.67 L103.83,96.50 L103.67,96.67 L103.33,96.67 L103.00,96.50 M98.00,100.33 L98.17,100.17 L98.17,99.83 L99.00,99.17 L100.50,99.17 L100.67,99.00 L103.33,99.00 L104.50,99.50 L105.67,99.50 L106.33,99.83 L107.00,99.83 L109.00,101.17 L109.50,101.33 L110.67,102.33 L110.83,102.33 L112.33,103.83 M97.67,104.67 L97.50,104.83 L97.00,104.83 L96.00,104.00 L95.67,104.00 L95.50,103.83 M97.33,101.33 L97.50,101.67 L97.33,101.83 L97.33,102.83 L98.17,104.00 L99.50,105.33 L99.83,105.50 L100.50,105.50 L100.67,105.67 L101.50,105.67 L101.67,105.83 L102.50,105.83 L102.67,105.67 L103.00,105.67 M101.83,101.17 L101.50,100.83 L101.00,101.00 L100.83,101.17 L100.83,101.67 L101.17,102.00 L101.67,102.00 L102.00,101.67 L101.83,101.33 M95.50,103.83 L95.33,104.00 L93.50,104.00 L93.33,103.83 L93.00,103.83 M103.50,105.50 L104.33,104.83 L105.67,103.33 L105.67,103.00 L105.83,102.83 L105.83,101.50 L106.17,101.17 L106.83,101.33 L107.67,102.17 L108.00,102.17 L109.00,103.17 L109.50,103.33 L110.33,104.00" stroke-width="0.72" stroke-linecap="round" stroke-linejoin="round" vector-effect="non-scaling-stroke"/>
</svg>